<?xml version="1.0" encoding="UTF-8" standalone="no"?>
<!-- Created with Inkscape (http://www.inkscape.org/) -->

<svg
   width="45"
   height="45"
   viewBox="0 0 11.906249 11.90625"
   version="1.1"
   id="svg469"
   inkscape:export-filename="logo2.svg"
   inkscape:export-xdpi="96"
   inkscape:export-ydpi="96"
   xmlns:inkscape="http://www.inkscape.org/namespaces/inkscape"
   xmlns:sodipodi="http://sodipodi.sourceforge.net/DTD/sodipodi-0.dtd"
   xmlns="http://www.w3.org/2000/svg"
   xmlns:svg="http://www.w3.org/2000/svg">
  <sodipodi:namedview
     id="namedview471"
     pagecolor="#ffffff"
     bordercolor="#000000"
     borderopacity="0.25"
     inkscape:showpageshadow="2"
     inkscape:pageopacity="0.0"
     inkscape:pagecheckerboard="0"
     inkscape:deskcolor="#d1d1d1"
     inkscape:document-units="mm"
     showgrid="false" />
  <defs
     id="defs466">
    <radialGradient
       fx="0"
       fy="0"
       cx="0"
       cy="0"
       r="1"
       gradientUnits="userSpaceOnUse"
       gradientTransform="matrix(85.869682,0,0,-85.869682,170.24854,317.78516)"
       spreadMethod="pad"
       id="radialGradient58">
      <stop
         style="stop-opacity:1;stop-color:#1b75b9"
         offset="0"
         id="stop50" />
      <stop
         style="stop-opacity:1;stop-color:#1b75b9"
         offset="0.166667"
         id="stop52" />
      <stop
         style="stop-opacity:1;stop-color:#1b75b9"
         offset="0.58461496"
         id="stop54" />
      <stop
         style="stop-opacity:1;stop-color:#17ddb9"
         offset="1"
         id="stop56" />
    </radialGradient>
    <linearGradient
       x1="0"
       y1="0"
       x2="1"
       y2="0"
       gradientUnits="userSpaceOnUse"
       gradientTransform="matrix(108.67403,0,0,-108.67403,183.28564,325.77637)"
       spreadMethod="pad"
       id="linearGradient82">
      <stop
         style="stop-opacity:1;stop-color:#17ddb9"
         offset="0"
         id="stop74" />
      <stop
         style="stop-opacity:1;stop-color:#1b75b9"
         offset="0.41538504"
         id="stop76" />
      <stop
         style="stop-opacity:1;stop-color:#1b75b9"
         offset="0.833333"
         id="stop78" />
      <stop
         style="stop-opacity:1;stop-color:#1b75b9"
         offset="1"
         id="stop80" />
    </linearGradient>
    <linearGradient
       x1="0"
       y1="0"
       x2="1"
       y2="0"
       gradientUnits="userSpaceOnUse"
       gradientTransform="matrix(-77.669922,0,0,77.669922,329.80762,279.6875)"
       spreadMethod="pad"
       id="linearGradient106">
      <stop
         style="stop-opacity:1;stop-color:#a50054"
         offset="0"
         id="stop98" />
      <stop
         style="stop-opacity:1;stop-color:#a50054"
         offset="0.00955605"
         id="stop100" />
      <stop
         style="stop-opacity:1;stop-color:#a50054"
         offset="0.36845612"
         id="stop102" />
      <stop
         style="stop-opacity:1;stop-color:#f38e1d"
         offset="1"
         id="stop104" />
    </linearGradient>
    <linearGradient
       x1="0"
       y1="0"
       x2="1"
       y2="0"
       gradientUnits="userSpaceOnUse"
       gradientTransform="matrix(-108.67403,0,0,108.67403,313.91699,244.4375)"
       spreadMethod="pad"
       id="linearGradient130">
      <stop
         style="stop-opacity:1;stop-color:#f38e1d"
         offset="0"
         id="stop122" />
      <stop
         style="stop-opacity:1;stop-color:#a50054"
         offset="0.63154391"
         id="stop124" />
      <stop
         style="stop-opacity:1;stop-color:#a50054"
         offset="0.990444"
         id="stop126" />
      <stop
         style="stop-opacity:1;stop-color:#a50054"
         offset="1"
         id="stop128" />
    </linearGradient>
    <clipPath
       clipPathUnits="userSpaceOnUse"
       id="clipPath140">
      <path
         d="M 0,500 H 500 V 0 H 0 Z"
         id="path138" />
    </clipPath>
  </defs>
  <g
     inkscape:label="Layer 1"
     inkscape:groupmode="layer"
     id="layer1">
    <g
       id="g38"
       transform="matrix(0.06793062,0,0,-0.06173711,-10.963295,23.62204)">
      <g
         id="g40">
        <g
           id="g46">
          <g
             id="g48">
            <path
               d="m 171.921,324.836 c -6.033,-6.032 -6.032,-15.814 0,-21.846 v 0 l 27.669,-27.602 19.106,-19.172 c 6.032,-6.033 15.812,-6.033 21.845,0 v 0 c 6.033,6.03 6.033,15.813 0,21.843 v 0 l -46.775,46.777 c -3.016,3.016 -6.97,4.524 -10.923,4.524 v 0 c -3.954,0 -7.906,-1.508 -10.922,-4.524"
               style="fill:url(#radialGradient58);stroke:none"
               id="path60" />
          </g>
        </g>
      </g>
    </g>
    <g
       id="g62"
       transform="matrix(0.06793062,0,0,-0.06173711,-10.963295,23.62204)">
      <g
         id="g64">
        <g
           id="g70">
          <g
             id="g72">
            <path
               d="m 218.695,371.64 -46.774,-46.777 c -5.908,-5.906 -6.278,-15.149 -0.618,-21.205 v 0 l 0.24,-0.254 0.311,-0.312 c 0.024,-0.023 0.043,-0.049 0.067,-0.073 v 0 c 0.024,-0.025 0.052,-0.046 0.077,-0.071 v 0 l 27.592,-27.56 c -14.857,14.858 5.09,38.544 5.09,38.544 v 0 l -0.004,-0.001 35.865,35.863 c 6.031,6.033 6.033,15.815 0,21.846 v 0 c -3.016,3.016 -6.969,4.524 -10.922,4.524 v 0 c -3.954,0 -7.907,-1.508 -10.924,-4.524"
               style="fill:url(#linearGradient82);stroke:none"
               id="path84" />
          </g>
        </g>
      </g>
    </g>
    <g
       id="g86"
       transform="matrix(0.06793062,0,0,-0.06173711,-10.963295,23.62204)">
      <g
         id="g88">
        <g
           id="g94">
          <g
             id="g96">
            <path
               d="m 256.661,313.998 c -6.031,-6.032 -6.031,-15.813 0,-21.844 v 0 l 46.777,-46.777 c 6.032,-6.032 15.814,-6.034 21.845,0 v 0 c 6.033,6.033 6.031,15.814 0,21.846 v 0 l -27.671,27.602 -19.104,19.173 c -3.018,3.017 -6.971,4.525 -10.924,4.525 v 0 c -3.953,0 -7.906,-1.508 -10.923,-4.525"
               style="fill:url(#linearGradient106);stroke:none"
               id="path108" />
          </g>
        </g>
      </g>
    </g>
    <g
       id="g110"
       transform="matrix(0.06793062,0,0,-0.06173711,-10.963295,23.62204)">
      <g
         id="g112">
        <g
           id="g118">
          <g
             id="g120">
            <path
               d="m 292.523,256.281 0.003,0.002 -35.864,-35.865 c -6.032,-6.032 -6.032,-15.813 -10e-4,-21.844 v 0 c 6.034,-6.032 15.812,-6.031 21.847,0 v 0 l 46.775,46.776 c 5.906,5.906 6.277,15.15 0.616,21.205 v 0 l -0.239,0.256 -0.312,0.311 c -0.021,0.023 -0.041,0.049 -0.065,0.073 v 0 c -0.024,0.025 -0.054,0.046 -0.079,0.07 v 0 l -27.592,27.56 c 14.859,-14.858 -5.089,-38.544 -5.089,-38.544"
               style="fill:url(#linearGradient130);stroke:none"
               id="path132" />
          </g>
        </g>
      </g>
    </g>
    <g
       id="g134"
       style="fill:#e6e6e6"
       transform="matrix(0.06793062,0,0,-0.06173711,-10.963295,23.62204)">
      <g
         id="g136"
         clip-path="url(#clipPath140)"
         style="fill:#e6e6e6">
        <g
           id="g142"
           transform="translate(239.0371,204.7324)"
           style="fill:#e6e6e6">
          <path
             d="m 0,0 c -2.466,-7.884 -10.854,-12.275 -18.738,-9.81 -7.881,2.465 -12.273,10.856 -9.808,18.738 l 48.382,152.079 c 2.467,7.884 10.857,12.277 18.74,9.81 7.881,-2.464 12.274,-10.855 9.809,-18.738 z"
             style="fill:#e6e6e6;fill-opacity:1;fill-rule:nonzero;stroke:none"
             id="path144" />
        </g>
      </g>
    </g>
  </g>
</svg>
